<svg width="512px" height="183px" viewBox="0 0 512 183" xmlns="http://www.w3.org/2000/svg" xmlns:xlink="http://www.w3.org/1999/xlink" version="1.1">
 <!-- Generated by Pixelmator Pro 1.3.4 -->
 <path id="path" d="M413 66.2 C385.386 66.2 363 88.586 363 116.2 363 143.814 385.386 166.2 413 166.2 440.614 166.2 463 143.814 463 116.2 463 88.586 440.614 66.2 413 66.2 Z M413 146.2 C396.431 146.2 383 132.769 383 116.2 383 99.631 396.431 86.2 413 86.2 429.568 86.2 443 99.631 443 116.2 443 132.769 429.568 146.2 413 146.2 Z" fill="#8f8f8f" fill-opacity="1" stroke="none"/>
 <path id="path-1" d="M308 66.2 C280.386 66.2 258 88.586 258 116.2 258 143.814 280.386 166.2 308 166.2 335.614 166.2 358 143.814 358 116.2 358 88.586 335.614 66.2 308 66.2 Z M308 146.2 C291.431 146.2 278 132.769 278 116.2 278 99.631 291.431 86.2 308 86.2 324.568 86.2 338 99.631 338 116.2 338 132.769 324.568 146.2 308 146.2 Z" fill="#8f8f8f" fill-opacity="1" stroke="none"/>
 <path id="path-2" d="M98 66.2 C70.386 66.2 48 88.586 48 116.2 48 143.814 70.386 166.2 98 166.2 125.614 166.2 148 143.814 148 116.2 148 88.586 125.614 66.2 98 66.2 Z M98 146.2 C81.431 146.2 68 132.769 68 116.2 68 99.631 81.431 86.2 98 86.2 114.568 86.2 128 99.631 128 116.2 128 132.769 114.568 146.2 98 146.2 Z" fill="#714b67" fill-opacity="1" stroke="none"/>
 <path id="path-3" d="M243 36.1 C237.477 36.1 233 40.577 233 46.1 L233 76.1 C214.456 62.192 188.785 62.853 170.982 77.697 153.178 92.54 147.911 117.673 158.256 138.416 168.602 159.159 191.847 170.071 214.415 164.78 236.982 159.488 252.953 139.379 253 116.2 L253 116.2 253 46.1 C253 40.577 248.523 36.1 243 36.1 Z M203 146.1 C186.431 146.1 173 132.668 173 116.1 173 99.531 186.431 86.1 203 86.1 219.568 86.1 233 99.531 233 116.1 233 132.668 219.568 146.1 203 146.1 Z" fill="#8f8f8f" fill-opacity="1" stroke="none"/>
</svg>
